<svg width="20" height="13" fill="none" xmlns="http://www.w3.org/2000/svg"><path fill-rule="evenodd" clip-rule="evenodd" d="M6.49 2.634C7.407 1.058 9.147 0 11.146 0c2.874 0 5.226 2.197 5.344 4.958C18.451 5.153 20 6.754 20 8.72c0 2.09-1.744 3.77-3.883 3.781H4.222C1.9 12.5 0 10.68 0 8.412 0 6.69 1.104 5.222 2.653 4.62c.325-1.242 1.478-2.155 2.85-2.155.354 0 .683.062.987.169Zm9.264 2.555a.366.366 0 0 0 .093.38l.02.02a.372.372 0 0 0 .364.088c1.692.072 3.028 1.417 3.028 3.042 0 1.667-1.395 3.037-3.145 3.046H4.222c-1.933 0-3.481-1.51-3.481-3.353 0-1.459.976-2.711 2.347-3.167a.368.368 0 0 0 .247-.283C3.515 3.967 4.409 3.2 5.503 3.2c.361 0 .692.087.994.232a.372.372 0 0 0 .494-.168C7.73 1.77 9.305.735 11.146.735c2.559 0 4.608 2.002 4.608 4.44v.014Z" fill="#2D2E2F"/></svg>