<svg width="15" height="18" fill="none" xmlns="http://www.w3.org/2000/svg"><path d="m14.71 6.462-.301-.864.258-.982a.333.333 0 0 0-.408-.408l-.983.26-.868-.301a.334.334 0 0 0-.218 0l-.852.296-.85-.296a.332.332 0 0 0-.22 0l-.85.296-.852-.296a.332.332 0 0 0-.219 0l-.753.262a2.693 2.693 0 0 0-.41-.506l-.98-.926v-1.84a.736.736 0 0 0-.74-.73H2.567a.736.736 0 0 0-.74.73v1.84l-.98.926A2.7 2.7 0 0 0 0 5.877v9.341c0 .615.288 1.177.791 1.543a1.99 1.99 0 0 0 1.775.283l1.45-.425 1.44.422a1.992 1.992 0 0 0 1.784-.28c.503-.366.791-.928.791-1.543v-2.496l.325.112a.323.323 0 0 0 .218 0l.853-.296.85.296a.33.33 0 0 0 .219 0l.852-.296.85.296a.33.33 0 0 0 .22 0l.862-.3.98.258a.335.335 0 0 0 .408-.41l-.26-.974.301-.879a.336.336 0 0 0 0-.218l-.296-.854.296-.851a.34.34 0 0 0 0-.22l-.296-.853.296-.852a.341.341 0 0 0 0-.22ZM.666 7.269h6.697v6.032H.667V7.269Zm1.9-6.174h2.897c.04 0 .072.028.072.063v1.649h-3.04v-1.65c0-.034.032-.062.071-.062ZM1.305 4.41l.99-.935h3.442l.99.935c.404.383.637.917.637 1.467V6.6H.667v-.724c0-.55.233-1.084.638-1.467Zm5.543 11.81a1.315 1.315 0 0 1-1.195.183L4.11 15.95a.327.327 0 0 0-.187 0l-1.553.454c-.41.133-.84.066-1.186-.185a1.228 1.228 0 0 1-.516-1.002V13.97h6.697v1.25c0 .398-.188.763-.516 1Zm7.192-7.724-.295.852a.34.34 0 0 0 0 .22l.295.854-.295.865a.334.334 0 0 0-.008.195l.138.517-.523-.138a.341.341 0 0 0-.195.007l-.85.296-.85-.296a.332.332 0 0 0-.219 0l-.852.296-.85-.296a.332.332 0 0 0-.219 0l-.852.296-.434-.15V5.877c0-.288-.06-.569-.15-.84l.576-.2.85.295c.071.025.15.025.22 0l.85-.296.851.296c.07.025.15.025.22 0l.851-.296.856.297c.062.021.13.024.194.007l.527-.14-.139.526a.337.337 0 0 0 .008.196l.295.85-.295.852a.34.34 0 0 0 0 .22l.295.852Z" fill="#2D2E2F"/></svg>