<svg width="20" height="13" fill="none" xmlns="http://www.w3.org/2000/svg"><path fill-rule="evenodd" clip-rule="evenodd" d="M19.978 9.092 16.717.244A.376.376 0 0 0 16.363 0c-.16 0-.3.098-.355.244l-2.827 7.67-2.827-7.67A.376.376 0 0 0 10 0c-.159 0-.3.098-.354.244l-2.827 7.67L3.992.244A.376.376 0 0 0 3.638 0c-.16 0-.3.098-.355.244L.023 9.092a.362.362 0 0 0 .045.337c.07.098.186.156.309.156H3.26v2.95c0 .203.169.368.377.368a.373.373 0 0 0 .376-.368v-2.95h5.609v2.95c0 .203.169.368.377.368a.373.373 0 0 0 .377-.368v-2.95h5.609v2.95c0 .203.168.368.376.368a.373.373 0 0 0 .377-.368v-2.95h2.884a.38.38 0 0 0 .309-.156.363.363 0 0 0 .046-.337ZM.913 8.848l2.725-7.393 2.724 7.393H.912Zm6.362 0L10 1.455l2.725 7.393h-5.45Zm6.363 0 2.725-7.393 2.724 7.393h-5.45Z" fill="#2D2E2F"/></svg>