<svg width="15" height="18" fill="none" xmlns="http://www.w3.org/2000/svg"><path d="M14.543 5.989c-1.534-.77-4.023-.8-6.558-.105v-.001a2.667 2.667 0 0 0-.839-1.946l-.98-.925c0-.003 0-.007-.002-.01V1.167a.732.732 0 0 0-.219-.511.73.73 0 0 0-.515-.213L2.542.424a.606.606 0 0 0-.28.052.738.738 0 0 0-.466.678v1.837l-.978.93a2.665 2.665 0 0 0-.612.898c-.142.34-.21.7-.206 1.064v9.334a1.958 1.958 0 0 0 1.673 1.896 1.944 1.944 0 0 0 .89-.083l1.446-.42 1.436.417a1.937 1.937 0 0 0 2.54-1.84V13.05c2.594-.747 4.696-.696 6.245.17a.333.333 0 0 0 .497-.29V6.287a.333.333 0 0 0-.184-.298ZM.668 7.495c1.041.303 2.996.32 6.65-.732v5.78c-3.163.932-5.485 1.012-6.65.777V7.495ZM5.496 1.09v1.705H2.464V1.09h3.032ZM.823 5.074c.106-.255.26-.483.458-.673l.99-.94H5.67l1.017.96a2.005 2.005 0 0 1 .63 1.462v.185C3.216 7.273 1.424 7.086.668 6.794v-.915a2.017 2.017 0 0 1 .155-.805Zm6.354 10.69a1.28 1.28 0 0 1-.933.678c-.196.03-.4.014-.601-.05l-1.54-.45a.339.339 0 0 0-.188.001l-1.556.453a1.275 1.275 0 0 1-1.69-1.184v-1.21c.37.064.817.102 1.344.102 1.32 0 3.12-.237 5.304-.865v1.946c0 .2-.048.4-.14.579Zm6.882-3.37c-1.604-.7-3.646-.704-6.074-.034V6.572c2.306-.663 4.645-.691 6.074-.074v5.896Z" fill="#2D2E2F"/></svg>