<svg width="8" height="16" fill="none" xmlns="http://www.w3.org/2000/svg"><path d="M7.53 9.998a11.387 11.387 0 0 1-.42-2.308l-.055-1.42v-.063c0-.191-.023-.388-.07-.597l-.015-.062A2.779 2.779 0 0 0 5.518 3.69V.55a.31.31 0 0 0-.311-.31H3.34a.31.31 0 0 0-.311.31v3.155c-.679.347-1.205.956-1.411 1.685a2.744 2.744 0 0 0-.128.816v.053L1.44 7.68c-.087 1.089-.267 1.745-.433 2.353-.162.603-.329 1.226-.329 2.139a3.596 3.596 0 0 0 7.193 0c0-.927-.164-1.528-.34-2.173ZM5.207 6.145a.933.933 0 0 1-1.866 0 .93.93 0 0 1 .196-.568H5.01c.125.162.196.36.196.568ZM3.652.86h1.244v4.096H3.652V.86Zm.62 14.28A2.974 2.974 0 0 1 1.3 12.17c0-.83.15-1.388.315-2.004.166-.605.354-1.29.445-2.45l.054-1.445v-.065c0-.206.033-.419.102-.639.132-.466.425-.874.815-1.155v.804a1.55 1.55 0 0 0 1.244 2.482 1.551 1.551 0 0 0 1.244-2.482v-.804a2.167 2.167 0 0 1 .858 1.33c.038.169.057.32.057.465l.056 1.52c.09 1.134.276 1.823.442 2.442.164.596.317 1.159.317 2.002a2.976 2.976 0 0 1-2.976 2.969Z" fill="#2D2E2F"/></svg>