<svg width="22" height="7" fill="none" xmlns="http://www.w3.org/2000/svg"><path d="M21.763 6.204c-1.322-.43-2.176-1.54-2.176-2.825 0-.972.599-1.891 1.602-2.459a.343.343 0 0 0-.085-.633C20.34.094 19.731 0 19.244 0c-.968 0-1.719.245-2.364.77-.534.436-.991 1.08-1.397 1.972-.12.27-.233.538-.343.802-.306.73-.594 1.42-1.004 1.992-.024.035-.055.065-.08.099a2.888 2.888 0 0 1-1.108-2.256c0-.972.6-1.891 1.603-2.459a.343.343 0 0 0-.085-.633C13.7.094 13.092 0 12.604 0c-.968 0-1.719.245-2.363.77-.535.436-.991 1.08-1.397 1.972-.12.27-.232.537-.342.8-.306.731-.595 1.422-1.004 1.993-.025.035-.056.066-.082.1A2.888 2.888 0 0 1 6.308 3.38c0-.973.6-1.891 1.603-2.459a.343.343 0 0 0-.085-.633C7.061.094 6.452 0 5.965 0c-.968 0-1.719.245-2.363.77-.535.436-.992 1.08-1.397 1.972-.12.27-.232.537-.343.8-.305.731-.594 1.422-1.003 1.993a3.01 3.01 0 0 1-.713.715.344.344 0 1 0 .395.563c.331-.233.626-.527.877-.878.454-.634.758-1.36 1.079-2.128.108-.258.217-.52.334-.782.36-.791.755-1.354 1.205-1.722C4.558.878 5.153.688 5.965.688c.259 0 .572.033.936.1-.813.685-1.28 1.612-1.28 2.59 0 1.212.623 2.339 1.666 3.015.01.006.02.007.03.011a.334.334 0 0 0 .121.038c.012.001.024.007.036.007.014 0 .027-.007.04-.008a.335.335 0 0 0 .178-.078c.01-.008.023-.012.032-.022.12-.128.231-.264.333-.406.454-.634.758-1.36 1.079-2.128.108-.258.218-.52.334-.782.36-.791.755-1.354 1.205-1.722.522-.425 1.117-.615 1.929-.615.259 0 .572.033.936.1-.813.685-1.28 1.612-1.28 2.59 0 1.212.623 2.338 1.666 3.015.011.007.024.008.036.014a.335.335 0 0 0 .318-.007.319.319 0 0 0 .05-.036c.012-.009.025-.013.035-.024.119-.128.23-.263.33-.405.455-.634.758-1.358 1.08-2.126.107-.259.217-.522.335-.784.36-.791.754-1.354 1.204-1.722.523-.425 1.117-.615 1.93-.615.258 0 .571.033.935.1-.812.685-1.28 1.612-1.28 2.59 0 1.589 1.04 2.955 2.65 3.48a.344.344 0 0 0 .213-.654Z" fill="#2D2E2F"/></svg>