<svg width="20" height="13" viewBox="0 0 20 13" fill="none" xmlns="http://www.w3.org/2000/svg">
<path fill-rule="evenodd" clip-rule="evenodd" d="M6.49044 2.63383C7.40675 1.05832 9.14656 0 11.1459 0C14.0203 0 16.3722 2.19695 16.4902 4.95826C18.4511 5.15309 20 6.75419 20 8.71919C20 10.8093 18.2563 12.4897 16.1166 12.5H16.1148H4.22223C1.89917 12.5 0 10.6801 0 8.41231C0 6.68956 1.10418 5.22172 2.65259 4.62028C2.97808 3.37797 4.13116 2.46454 5.50296 2.46454C5.8567 2.46454 6.18626 2.52695 6.49044 2.63383ZM15.7541 5.18901C15.7089 5.32232 15.7444 5.47051 15.8469 5.56954L15.8662 5.58814C15.9633 5.68194 16.1033 5.7149 16.2311 5.67671C17.9231 5.7492 19.2593 7.094 19.2593 8.71919C19.2593 10.3861 17.8641 11.7559 16.1139 11.7647H4.22223C2.28898 11.7647 0.740744 10.2551 0.740744 8.41231C0.740744 6.95337 1.71679 5.70093 3.08791 5.24547C3.21629 5.20283 3.31101 5.09404 3.33492 4.96177C3.51477 3.96692 4.40934 3.19984 5.50296 3.19984C5.8645 3.19984 6.1946 3.28671 6.4965 3.4325C6.68006 3.52113 6.90125 3.44566 6.99106 3.26374C7.72869 1.77036 9.30481 0.735294 11.1459 0.735294C13.7046 0.735294 15.7541 2.73732 15.7541 5.17583V5.18901Z" fill="#2D2E2F"/>
</svg>
