<svg width="15" height="18" viewBox="0 0 15 18" fill="none" xmlns="http://www.w3.org/2000/svg">
<path d="M14.7091 6.4617L14.4087 5.59827L14.6674 4.61636C14.6981 4.50145 14.6648 4.37903 14.5807 4.29481C14.4967 4.20994 14.3754 4.17795 14.2594 4.20798L13.2764 4.4675L12.4083 4.16653C12.3378 4.14237 12.2603 4.14205 12.1899 4.16685L11.338 4.46293L10.4874 4.16685C10.4169 4.14205 10.3388 4.14205 10.2683 4.16685L9.41709 4.46293L8.56646 4.16685C8.49604 4.14205 8.41785 4.14205 8.34742 4.16685L7.59386 4.42947C7.47664 4.24732 7.34436 4.07435 7.18464 3.92333L6.20396 2.99658V1.15777C6.20396 0.754621 5.87219 0.42688 5.46415 0.42688H2.56748C2.15945 0.42688 1.82767 0.754621 1.82767 1.15777V2.99658L0.847016 3.92333C0.308619 4.43192 -1.52588e-05 5.14387 -1.52588e-05 5.87673V15.2183C-1.52588e-05 15.8327 0.288413 16.3948 0.791287 16.7611C1.13414 17.0105 1.54641 17.1397 1.95999 17.1397C2.16434 17.1397 2.36901 17.1084 2.56553 17.0438L4.01581 16.6194L5.45633 17.0412C6.06121 17.2377 6.72803 17.1338 7.24 16.7611C7.74287 16.3955 8.03132 15.8327 8.03132 15.2183V12.7216L8.35593 12.834C8.39114 12.8465 8.42762 12.8523 8.46477 12.8523C8.50193 12.8523 8.53841 12.8465 8.57429 12.834L9.42687 12.5377L10.2768 12.834C10.3472 12.8589 10.4254 12.8589 10.4958 12.834L11.3478 12.5377L12.1984 12.834C12.2688 12.8589 12.347 12.8589 12.4174 12.834L13.2804 12.5331L14.2594 12.7922C14.3728 12.821 14.4967 12.7896 14.5807 12.7054C14.6648 12.6212 14.6981 12.4985 14.6674 12.3829L14.4087 11.4081L14.7091 10.5294C14.7333 10.4589 14.7333 10.3818 14.7091 10.3114L14.4132 9.45742L14.7091 8.60573C14.7333 8.53487 14.7333 8.45752 14.7091 8.38633L14.4132 7.53337L14.7091 6.68139C14.7333 6.61023 14.7333 6.53286 14.7091 6.4617ZM0.667444 7.26931H7.36384V13.3008H0.667444V7.26931ZM2.56748 1.09542H5.46415C5.50391 1.09542 5.5365 1.12349 5.5365 1.15777V2.80659H2.49513V1.15777C2.49513 1.12349 2.52772 1.09542 2.56748 1.09542ZM1.30524 4.40972L2.29413 3.47514H5.7375L6.72635 4.40972C7.13149 4.79263 7.36384 5.32733 7.36384 5.87673V6.60075H0.667444V5.87673C0.667444 5.32733 0.899814 4.79263 1.30524 4.40972ZM6.84765 16.2198C6.50314 16.4712 6.07131 16.5364 5.65317 16.4026L4.10935 15.9508C4.04808 15.9326 3.98355 15.9326 3.92228 15.9508L2.36868 16.4052C1.95967 16.5378 1.52817 16.4712 1.18335 16.2198C0.855491 15.9815 0.667444 15.6166 0.667444 15.2183V13.9694H7.36384V15.2183C7.36384 15.6166 7.1758 15.9815 6.84765 16.2198ZM14.0404 8.49603L13.7445 9.34772C13.7203 9.41885 13.7203 9.49593 13.7445 9.56706L14.0404 10.4217L13.7445 11.2874C13.7229 11.35 13.7203 11.4173 13.7373 11.4819L13.8748 11.999L13.3521 11.8606C13.2875 11.8436 13.2197 11.8469 13.1572 11.8678L12.3079 12.1642L11.4573 11.8678C11.3869 11.843 11.3087 11.843 11.2383 11.8678L10.3863 12.1642L9.53638 11.8678C9.46596 11.843 9.38904 11.843 9.31735 11.8678L8.46477 12.1642L8.03132 12.0142V5.87673C8.03132 5.58868 7.97087 5.30799 7.8803 5.03745L8.45694 4.83637L9.30757 5.13245C9.378 5.15726 9.45619 5.15726 9.52661 5.13245L10.3778 4.83637L11.2285 5.13245C11.2988 5.15726 11.3771 5.15726 11.4475 5.13245L12.2994 4.83637L13.1546 5.13278C13.2171 5.154 13.2849 5.15693 13.3488 5.13996L13.8762 5.00057L13.7373 5.52646C13.7203 5.59076 13.7229 5.65866 13.7445 5.72166L14.0404 6.57171L13.7445 7.42373C13.7203 7.49453 13.7203 7.57188 13.7445 7.64307L14.0404 8.49603Z" fill="#2D2E2F"/>
</svg>
