<svg width="36" height="36" viewBox="0 0 36 36" fill="none" xmlns="http://www.w3.org/2000/svg">
  <path d="M3.02294 29.7837C3.24005 32.2064 0.893501 34.5678 0.869599 34.5917C0.681738 34.7781 0.610867 35.0514 0.685395 35.3045C0.759354 35.5585 0.965214 35.7511 1.2231 35.8074C1.84181 35.9415 2.42454 36.0008 2.9709 36C5.90214 36 7.7765 34.3042 8.52567 33.4634C10.7522 34.3543 13.2277 34.8231 15.7242 34.8231C24.3901 34.8231 31.4405 29.3329 31.4405 22.5846C31.4405 22.1135 31.4023 21.6439 31.3328 21.1776C31.9371 21.3973 32.6234 21.5497 33.4082 21.5497C33.8709 21.5497 34.3653 21.4991 34.8897 21.3852C35.1476 21.3281 35.3543 21.1354 35.4283 20.8818C35.5014 20.6278 35.4305 20.3545 35.2418 20.1689C35.2221 20.1492 33.3455 18.2389 33.4892 16.3176C35.1324 14.5502 36 12.4698 36 10.2869C36 4.61474 30.0886 1.28561e-08 22.8222 1.28561e-08C15.5559 -0.000281259 9.64443 4.61481 9.64443 10.2869C9.64443 10.6227 9.66862 10.9539 9.70911 11.2815C3.87875 13.164 0 17.6373 0 22.5842C0 25.1849 1.0442 27.6695 3.0226 29.7834L3.02294 29.7837ZM22.8227 1.43985C29.2951 1.43985 34.5606 5.40839 34.5606 10.2869C34.5606 12.1621 33.774 13.9624 32.2861 15.4936C32.182 15.6013 32.1131 15.7383 32.0906 15.8859C31.8333 17.5507 32.6384 19.112 33.3344 20.1056C31.2849 20.0662 30.045 18.7684 29.6841 18.3305C29.672 18.2982 29.6574 18.2659 29.64 18.2349C29.4608 17.9087 29.0615 17.7737 28.7198 17.9242C26.9242 18.7158 24.8853 19.1343 22.8231 19.1343C16.3507 19.1343 11.0852 15.1658 11.0852 10.2872C11.0849 5.40866 16.35 1.44019 22.8231 1.44019L22.8227 1.43985ZM10.0236 12.6914C11.4163 17.2055 16.6187 20.5738 22.8227 20.5738C24.8813 20.5738 26.9239 20.1913 28.765 19.465C28.974 19.6922 29.2791 19.9793 29.6585 20.267C29.8824 21.0252 30.001 21.8028 30.001 22.5843C30.001 28.5391 23.5969 33.3831 15.7246 33.3831C13.2217 33.3831 10.7446 32.876 8.56236 31.9174C8.22573 31.7726 7.8458 31.9095 7.6633 32.2281C7.65121 32.2492 7.63996 32.2717 7.6304 32.2934C7.25215 32.7742 5.5957 34.6409 2.7798 34.5552C3.63386 33.3999 4.74192 31.4401 4.41989 29.3498C4.3974 29.2022 4.32906 29.0658 4.22529 28.9584C2.40377 27.0807 1.44027 24.8765 1.44027 22.5846C1.44027 18.3045 4.86279 14.402 10.0234 12.6915L10.0236 12.6914Z" fill="#2D2E2F"/>
  </svg>
