<svg width="20" height="13" viewBox="0 0 20 13" fill="none" xmlns="http://www.w3.org/2000/svg">
<path fill-rule="evenodd" clip-rule="evenodd" d="M19.9777 9.09155L16.7167 0.243672C16.6628 0.0975028 16.5211 0.00012207 16.3625 0.00012207C16.2038 0.00012207 16.0621 0.0975028 16.0082 0.243672L13.1813 7.91393L10.3542 0.243672C10.3004 0.0975028 10.1587 0.00012207 10 0.00012207C9.84133 0.00012207 9.69971 0.0975028 9.64584 0.243672L6.81881 7.914L3.99179 0.243672C3.93796 0.0975028 3.7963 0.00012207 3.6376 0.00012207C3.47891 0.00012207 3.33729 0.0975028 3.28342 0.243672L0.0223989 9.09155C-0.0192605 9.20451 -0.00206717 9.33026 0.0684454 9.42858C0.138919 9.52684 0.253898 9.58535 0.376584 9.58535H3.26105V12.5347C3.26105 12.7383 3.42966 12.9034 3.6376 12.9034C3.84559 12.9034 4.01416 12.7383 4.01416 12.5347V9.58535H6.739H6.89862H9.62346V12.5347C9.62346 12.7383 9.79204 12.9034 10.0001 12.9034C10.208 12.9034 10.3766 12.7383 10.3766 12.5347V9.58535H13.1015H13.2611H15.9859V12.5347C15.9859 12.7383 16.1545 12.9034 16.3624 12.9034C16.5704 12.9034 16.739 12.7383 16.739 12.5347V9.58535H19.6235C19.7462 9.58535 19.8611 9.52684 19.9317 9.42858C20.0021 9.33026 20.0193 9.20451 19.9777 9.09155ZM0.912779 8.84806L3.6376 1.45492L6.36247 8.84806H0.912779ZM7.2752 8.84806L10 1.45492L12.7249 8.84806H7.2752ZM13.6377 8.84806L16.3625 1.45492L19.0873 8.84806H13.6377Z" fill="#2D2E2F"/>
</svg>
