<svg width="8" height="13" viewBox="0 0 8 13" fill="none" xmlns="http://www.w3.org/2000/svg">
<path d="M4.03685 0.941486C3.90645 1.11609 0.847015 5.23588 0.847015 7.09884C0.847015 8.90933 2.18561 10.3901 3.89955 10.5988V12.0479C3.89955 12.2325 4.04923 12.3821 4.23426 12.3821C4.41922 12.3821 4.5689 12.2325 4.5689 12.0479V10.6134C6.35077 10.4727 7.76365 8.95912 7.76365 7.09884C7.76365 5.23588 4.70393 1.11609 4.57352 0.941486C4.44734 0.772434 4.16297 0.772434 4.03685 0.941486ZM4.5689 9.94497V5.47182C4.5689 5.28714 4.41922 5.1377 4.23426 5.1377C4.04923 5.1377 3.89955 5.28714 3.89955 5.47182V9.9302C2.55493 9.72575 1.51636 8.54039 1.51636 7.09884C1.51636 5.86175 3.33353 3.06683 4.30515 1.70866C5.27715 3.06683 7.0943 5.86175 7.0943 7.09884C7.0943 8.59038 5.98178 9.80569 4.5689 9.94497Z" fill="#2D2E2F"/>
</svg>
