<svg width="15" height="18" viewBox="0 0 15 18" fill="none" xmlns="http://www.w3.org/2000/svg">
<path d="M14.5433 5.98896C13.0094 5.21994 10.5203 5.1896 7.98518 5.88359V5.88257C7.98484 5.5159 7.91114 5.15963 7.76594 4.82289C7.62048 4.48614 7.41202 4.18811 7.14619 3.93661L6.16631 3.0119C6.16513 3.00876 6.16554 3.00498 6.16427 3.00185V1.16748C6.16068 0.973246 6.08272 0.79137 5.94506 0.656021C5.80642 0.51872 5.62244 0.443237 5.42965 0.443237L2.54172 0.424041C2.43701 0.415907 2.35024 0.440634 2.26118 0.475773C2.1705 0.511888 2.08927 0.564596 2.01913 0.632595C1.94933 0.700595 1.89452 0.780308 1.85701 0.867504C1.81851 0.956001 1.79796 1.05036 1.79601 1.15447V2.99144L0.81771 3.92034C0.552825 4.17672 0.346661 4.47931 0.205739 4.8193C0.0644905 5.15963 -0.00466582 5.51882 0.000227313 5.8829V15.2174C0.00577287 15.5233 0.0843894 15.8278 0.226943 16.0972C0.369496 16.3666 0.577617 16.6021 0.828146 16.7785C1.079 16.9555 1.37128 17.0707 1.67303 17.113C1.76372 17.1259 1.85538 17.1318 1.94639 17.1318C2.16005 17.1318 2.37112 17.0973 2.56228 17.0303L4.00868 16.6093L5.44498 17.0271C5.73433 17.1227 6.04683 17.1468 6.34662 17.1006C6.64739 17.0538 6.93707 16.934 7.18401 16.7544C7.43029 16.5761 7.63387 16.3386 7.77284 16.0666C7.91148 15.7946 7.98484 15.4907 7.98518 15.1862V13.0509C10.5787 12.3038 12.6808 12.355 14.2301 13.2216C14.3338 13.2783 14.4598 13.2789 14.5622 13.2184C14.6646 13.1585 14.7273 13.0493 14.7273 12.9308V6.28667C14.7273 6.16076 14.6562 6.04558 14.5433 5.98896ZM0.668303 7.49488C1.70911 7.79826 3.66408 7.81524 7.3171 6.76271V12.5431C4.1547 13.4748 1.83316 13.5549 0.668303 13.3196V7.49488ZM5.4962 1.09V2.7946H2.46408V1.09H5.4962ZM0.822925 5.07439C0.928948 4.81865 1.08389 4.59123 1.28059 4.40089L2.27056 3.46093H5.6699L6.68686 4.42042C6.88652 4.60913 7.0431 4.83329 7.15235 5.0861C7.26133 5.33922 7.31676 5.60732 7.3171 5.8829V6.06847C3.21595 7.27265 1.42392 7.08648 0.668303 6.79378V5.87867C0.664715 5.60114 0.71658 5.33044 0.822925 5.07439ZM7.17745 15.764C7.08615 15.9423 6.95273 16.0985 6.79093 16.2156C6.62912 16.3334 6.43992 16.4115 6.24354 16.4421C6.04814 16.4727 5.84328 16.4557 5.64266 16.3913L4.10231 15.9423C4.04098 15.9254 3.97639 15.9247 3.91506 15.943L2.35905 16.3959C2.16984 16.4616 1.96596 16.4824 1.76665 16.4532C1.56897 16.4258 1.37748 16.3497 1.21307 16.2345C1.04834 16.118 0.911656 15.9631 0.81771 15.7861C0.723435 15.6085 0.67189 15.4074 0.668303 15.2116V14.0022C1.03912 14.0659 1.48631 14.104 2.01326 14.104C3.3336 14.104 5.13296 13.8668 7.3171 13.2389V15.1855C7.31676 15.3853 7.2685 15.5858 7.17745 15.764ZM14.0592 12.394C12.4549 11.6943 10.413 11.6896 7.98518 12.3596V6.57177C10.2915 5.90909 12.6305 5.88083 14.0592 6.49848V12.394Z" fill="#2D2E2F"/>
</svg>
