<svg width="8" height="16" viewBox="0 0 8 16" fill="none" xmlns="http://www.w3.org/2000/svg">
<path d="M7.52964 9.99792C7.37228 9.4151 7.19433 8.75471 7.10993 7.68973L7.05525 6.27093V6.20664C7.05525 6.01591 7.03155 5.81881 6.98416 5.61019C6.98354 5.60716 6.97079 5.55076 6.97023 5.54772C6.95928 5.50102 6.94771 5.45463 6.93676 5.41916C6.73101 4.67093 6.20655 4.04086 5.51788 3.69112V0.549887C5.51788 0.378259 5.37879 0.23938 5.20689 0.23938H3.34093C3.16903 0.23938 3.02993 0.378259 3.02993 0.549887V3.70465C2.35145 4.05163 1.82528 4.66127 1.61862 5.39035C1.53388 5.66234 1.49075 5.93677 1.49075 6.20634L1.49106 6.2591L1.43852 7.67912C1.35226 8.768 1.17247 9.42423 1.00634 10.0319C0.84447 10.6347 0.677429 11.2575 0.677429 12.1709C0.677429 14.1503 2.29011 15.7605 4.27239 15.7605C6.25649 15.7605 7.87037 14.1503 7.87037 12.1709C7.87037 11.2442 7.70579 10.6426 7.52964 9.99792ZM5.20689 6.14508C5.20689 6.65879 4.78839 7.07661 4.27391 7.07661C3.75943 7.07661 3.34093 6.65879 3.34093 6.14508C3.34093 5.93775 3.41184 5.73921 3.53663 5.57744H5.01127C5.13616 5.73918 5.20689 5.93779 5.20689 6.14508ZM3.65192 0.860397H4.8959V4.95643H3.65192V0.860397ZM4.27239 15.1395C2.63299 15.1395 1.29942 13.8077 1.29942 12.1709C1.29942 11.3394 1.44884 10.7821 1.61406 10.1665C1.77988 9.56129 1.96787 8.87538 2.05929 7.7152L2.11274 6.27062V6.20634C2.11274 5.99954 2.14645 5.78727 2.21479 5.56744C2.34709 5.10087 2.64009 4.6928 3.02993 4.41239V5.2158C2.83047 5.48215 2.71894 5.80729 2.71894 6.14508C2.71894 7.00109 3.41655 7.69762 4.27391 7.69762C5.13157 7.69762 5.82888 7.00109 5.82888 6.14508C5.82888 5.80695 5.71731 5.48181 5.51788 5.21546V4.41201C5.9124 4.69606 6.20742 5.11229 6.33972 5.59351C6.34942 5.62535 6.35732 5.6581 6.37617 5.74149C6.41442 5.91069 6.43326 6.06291 6.43326 6.20664L6.48912 7.72613C6.57906 8.86078 6.76491 9.55036 6.93135 10.169C7.09475 10.7651 7.24838 11.3279 7.24838 12.1709C7.24838 13.8077 5.91331 15.1395 4.27239 15.1395Z" fill="#2D2E2F"/>
</svg>
