<svg width="22" height="7" viewBox="0 0 22 7" fill="none" xmlns="http://www.w3.org/2000/svg">
<path d="M21.7629 6.20437C20.441 5.77332 19.587 4.66413 19.587 3.3787C19.587 2.40682 20.1858 1.48765 21.1895 0.919969C21.3118 0.850814 21.3796 0.714173 21.3608 0.575193C21.3426 0.435873 21.2406 0.322068 21.1043 0.287489C20.3396 0.0941204 19.7307 0.00012207 19.2432 0.00012207C18.2757 0.00012207 17.5251 0.244854 16.8799 0.770239C16.3455 1.20599 15.8889 1.85022 15.4833 2.7422C15.3626 3.01178 15.2504 3.28 15.1396 3.54387C14.8341 4.27404 14.5461 4.96392 14.1365 5.53563C14.1117 5.57059 14.0814 5.60098 14.0552 5.63488C13.358 5.07844 12.9475 4.25629 12.9475 3.3787C12.9475 2.40682 13.5471 1.48765 14.5508 0.919969C14.673 0.850814 14.7408 0.71451 14.722 0.575193C14.7039 0.435873 14.6018 0.322068 14.4656 0.287489C13.7008 0.0941204 13.0919 0.00012207 12.6038 0.00012207C11.6363 0.00012207 10.8854 0.244854 10.2408 0.770239C9.70636 1.20599 9.24952 1.85022 8.84362 2.7422C8.72344 3.0111 8.61165 3.279 8.50158 3.5422C8.19571 4.27304 7.90703 4.96359 7.49783 5.5353C7.47274 5.57038 7.44242 5.60106 7.41609 5.63509C6.71904 5.07882 6.30844 4.25667 6.30844 3.3787C6.30844 2.40649 6.90768 1.48765 7.91137 0.919969C8.0336 0.850814 8.10173 0.71451 8.08296 0.575193C8.06413 0.435873 7.96272 0.322068 7.82646 0.287489C7.06141 0.0941204 6.45212 0.00012207 5.96469 0.00012207C4.9972 0.00012207 4.24625 0.244854 3.60171 0.770239C3.06728 1.20599 2.6104 1.85022 2.20454 2.7422C2.08436 3.0111 1.97258 3.279 1.86247 3.5422C1.55665 4.27304 1.26795 4.96359 0.859068 5.53497C0.653285 5.82166 0.413597 6.0627 0.146382 6.25003C-0.00904585 6.3588 -0.0466439 6.57365 0.0624576 6.72875C0.129261 6.82409 0.235677 6.87512 0.344108 6.87512C0.412254 6.87512 0.481072 6.85497 0.541162 6.81267C0.872158 6.58037 1.1669 6.28561 1.41801 5.93513C1.8722 5.30064 2.17567 4.57517 2.4966 3.80741C2.60469 3.54924 2.71447 3.28672 2.83128 3.02487C3.19149 2.2336 3.5856 1.67062 4.03611 1.30335C4.55845 0.877667 5.15331 0.687656 5.96469 0.687656C6.22351 0.687656 6.53672 0.721227 6.9006 0.787364C6.08789 1.47288 5.62093 2.40011 5.62093 3.3787C5.62093 4.59028 6.24365 5.71692 7.28698 6.39304C7.29619 6.39887 7.30678 6.39955 7.31627 6.40442C7.34026 6.417 7.36412 6.42644 7.38983 6.43299C7.40612 6.43714 7.42166 6.44029 7.43816 6.44201C7.4504 6.44331 7.46208 6.44877 7.47432 6.44877C7.4878 6.44877 7.50052 6.44234 7.51399 6.44075C7.53413 6.43841 7.55304 6.43471 7.5725 6.42888C7.59518 6.42204 7.61601 6.4131 7.63719 6.40151C7.65692 6.39082 7.67438 6.3781 7.69185 6.36341C7.70216 6.35473 7.71495 6.35074 7.72443 6.34067C7.84461 6.2131 7.95502 6.07747 8.05712 5.93513C8.51128 5.30064 8.81474 4.57517 9.13566 3.80741C9.24381 3.54924 9.35353 3.28672 9.47034 3.02487C9.83059 2.2336 10.2247 1.67062 10.6752 1.30335C11.1975 0.877667 11.792 0.687656 12.6038 0.687656C12.8629 0.687656 13.1758 0.721227 13.5403 0.787364C12.7273 1.47288 12.26 2.40011 12.26 3.3787C12.26 4.58961 12.8831 5.71625 13.9258 6.39304C13.9371 6.40026 13.95 6.40135 13.9618 6.4071C13.9835 6.41792 14.0047 6.42682 14.0278 6.43282C14.0474 6.43785 14.0661 6.44063 14.086 6.44218C14.1106 6.44423 14.134 6.44419 14.1584 6.441C14.1777 6.43845 14.1955 6.43404 14.2141 6.42829C14.2373 6.42116 14.2589 6.41234 14.2804 6.40021C14.2986 6.3901 14.3145 6.37789 14.3306 6.36438C14.3416 6.35527 14.3548 6.3507 14.3649 6.34C14.4837 6.21243 14.5951 6.0768 14.6958 5.93513C15.1504 5.30098 15.4532 4.57652 15.7741 3.80908C15.8822 3.55025 15.9923 3.28706 16.1098 3.02487C16.4696 2.2336 16.8638 1.67062 17.3143 1.30335C17.8366 0.877667 18.4315 0.687656 19.2432 0.687656C19.5023 0.687656 19.8152 0.721227 20.1791 0.787364C19.3667 1.47321 18.8995 2.40011 18.8995 3.3787C18.8995 4.96694 19.9394 6.33261 21.5494 6.85833C21.585 6.86975 21.6206 6.87512 21.6562 6.87512C21.8012 6.87512 21.9355 6.78313 21.9832 6.63811C22.0415 6.4575 21.9435 6.26346 21.7629 6.20437Z" fill="#2D2E2F"/>
</svg>
